<mxfile host="app.diagrams.net" agent="Mozilla/5.0 (Windows NT 10.0; Win64; x64; rv:132.0) Gecko/20100101 Firefox/132.0" version="24.8.3">
  <diagram name="Page-1" id="TrFkJt4Q3403ZMpoXxQd">
    <mxGraphModel dx="1195" dy="644" grid="1" gridSize="10" guides="1" tooltips="1" connect="1" arrows="1" fold="1" page="1" pageScale="1" pageWidth="850" pageHeight="1400" math="0" shadow="0">
      <root>
        <mxCell id="0" />
        <mxCell id="1" parent="0" />
        <mxCell id="jT8QoHCPhj27wWN9HuLi-6" value="" style="edgeStyle=orthogonalEdgeStyle;rounded=0;orthogonalLoop=1;jettySize=auto;html=1;" edge="1" parent="1" source="jT8QoHCPhj27wWN9HuLi-2" target="jT8QoHCPhj27wWN9HuLi-5">
          <mxGeometry relative="1" as="geometry" />
        </mxCell>
        <mxCell id="jT8QoHCPhj27wWN9HuLi-39" style="edgeStyle=orthogonalEdgeStyle;rounded=0;orthogonalLoop=1;jettySize=auto;html=1;exitX=0;exitY=0.5;exitDx=0;exitDy=0;entryX=1;entryY=0.5;entryDx=0;entryDy=0;" edge="1" parent="1" source="jT8QoHCPhj27wWN9HuLi-2" target="jT8QoHCPhj27wWN9HuLi-36">
          <mxGeometry relative="1" as="geometry" />
        </mxCell>
        <mxCell id="jT8QoHCPhj27wWN9HuLi-2" value="Esperando trabajos" style="rounded=1;whiteSpace=wrap;html=1;" vertex="1" parent="1">
          <mxGeometry x="365" y="150" width="120" height="60" as="geometry" />
        </mxCell>
        <mxCell id="jT8QoHCPhj27wWN9HuLi-4" value="&lt;div&gt;Se presiona el boton de encendido /&amp;nbsp;&lt;/div&gt;&lt;div&gt;Encender sensores y el led azul&lt;/div&gt;" style="text;html=1;align=center;verticalAlign=middle;resizable=0;points=[];autosize=1;strokeColor=none;fillColor=none;" vertex="1" parent="1">
          <mxGeometry x="445" y="50" width="220" height="40" as="geometry" />
        </mxCell>
        <mxCell id="jT8QoHCPhj27wWN9HuLi-9" style="edgeStyle=orthogonalEdgeStyle;rounded=0;orthogonalLoop=1;jettySize=auto;html=1;entryX=1;entryY=0.5;entryDx=0;entryDy=0;" edge="1" parent="1" source="jT8QoHCPhj27wWN9HuLi-5" target="jT8QoHCPhj27wWN9HuLi-8">
          <mxGeometry relative="1" as="geometry" />
        </mxCell>
        <mxCell id="jT8QoHCPhj27wWN9HuLi-11" style="edgeStyle=orthogonalEdgeStyle;rounded=0;orthogonalLoop=1;jettySize=auto;html=1;entryX=0.75;entryY=1;entryDx=0;entryDy=0;" edge="1" parent="1" source="jT8QoHCPhj27wWN9HuLi-5" target="jT8QoHCPhj27wWN9HuLi-8">
          <mxGeometry relative="1" as="geometry">
            <Array as="points">
              <mxPoint x="380" y="360" />
              <mxPoint x="150" y="360" />
            </Array>
          </mxGeometry>
        </mxCell>
        <mxCell id="jT8QoHCPhj27wWN9HuLi-18" style="edgeStyle=orthogonalEdgeStyle;rounded=0;orthogonalLoop=1;jettySize=auto;html=1;entryX=1;entryY=0.5;entryDx=0;entryDy=0;" edge="1" parent="1" source="jT8QoHCPhj27wWN9HuLi-5" target="jT8QoHCPhj27wWN9HuLi-2">
          <mxGeometry relative="1" as="geometry">
            <Array as="points">
              <mxPoint x="425" y="430" />
              <mxPoint x="720" y="430" />
              <mxPoint x="720" y="180" />
            </Array>
          </mxGeometry>
        </mxCell>
        <mxCell id="jT8QoHCPhj27wWN9HuLi-21" value="" style="edgeStyle=orthogonalEdgeStyle;rounded=0;orthogonalLoop=1;jettySize=auto;html=1;" edge="1" parent="1" source="jT8QoHCPhj27wWN9HuLi-5" target="jT8QoHCPhj27wWN9HuLi-20">
          <mxGeometry relative="1" as="geometry" />
        </mxCell>
        <mxCell id="jT8QoHCPhj27wWN9HuLi-5" value="Imprimiendo" style="rounded=1;whiteSpace=wrap;html=1;" vertex="1" parent="1">
          <mxGeometry x="365" y="280" width="120" height="60" as="geometry" />
        </mxCell>
        <mxCell id="jT8QoHCPhj27wWN9HuLi-7" value="&lt;div style=&quot;font-size: 10px;&quot;&gt;Se envia un documento/&amp;nbsp;&lt;/div&gt;&lt;div style=&quot;font-size: 10px;&quot;&gt;Encender led verde&lt;br style=&quot;font-size: 10px;&quot;&gt;&lt;/div&gt;" style="text;html=1;align=center;verticalAlign=middle;resizable=0;points=[];autosize=1;strokeColor=none;fillColor=none;fontSize=10;" vertex="1" parent="1">
          <mxGeometry x="420" y="220" width="140" height="40" as="geometry" />
        </mxCell>
        <mxCell id="jT8QoHCPhj27wWN9HuLi-40" style="edgeStyle=orthogonalEdgeStyle;rounded=0;orthogonalLoop=1;jettySize=auto;html=1;entryX=0.5;entryY=0;entryDx=0;entryDy=0;" edge="1" parent="1" source="jT8QoHCPhj27wWN9HuLi-8" target="jT8QoHCPhj27wWN9HuLi-29">
          <mxGeometry relative="1" as="geometry">
            <Array as="points">
              <mxPoint x="90" y="360" />
              <mxPoint x="90" y="360" />
            </Array>
          </mxGeometry>
        </mxCell>
        <mxCell id="jT8QoHCPhj27wWN9HuLi-8" value="Esperando recarga" style="rounded=1;whiteSpace=wrap;html=1;" vertex="1" parent="1">
          <mxGeometry x="60" y="280" width="120" height="60" as="geometry" />
        </mxCell>
        <mxCell id="jT8QoHCPhj27wWN9HuLi-10" value="&lt;div style=&quot;font-size: 10px;&quot;&gt;Impresora se queda sin&amp;nbsp;&lt;/div&gt;&lt;div style=&quot;font-size: 10px;&quot;&gt;papel / Guardar progreso y&amp;nbsp;&lt;/div&gt;&lt;div style=&quot;font-size: 10px;&quot;&gt;encender led amarillo&lt;br style=&quot;font-size: 10px;&quot;&gt;&lt;/div&gt;" style="text;html=1;align=center;verticalAlign=middle;resizable=0;points=[];autosize=1;strokeColor=none;fillColor=none;fontSize=10;" vertex="1" parent="1">
          <mxGeometry x="195" y="305" width="150" height="50" as="geometry" />
        </mxCell>
        <mxCell id="jT8QoHCPhj27wWN9HuLi-12" value="&lt;div style=&quot;font-size: 10px;&quot;&gt;Impresora se queda sin&amp;nbsp;&lt;/div&gt;&lt;div style=&quot;font-size: 10px;&quot;&gt;tinta / Guardar progreso y encender led rojo&lt;br style=&quot;font-size: 10px;&quot;&gt;&lt;/div&gt;" style="text;html=1;align=center;verticalAlign=middle;resizable=0;points=[];autosize=1;strokeColor=none;fillColor=none;fontSize=10;" vertex="1" parent="1">
          <mxGeometry x="155" y="355" width="230" height="40" as="geometry" />
        </mxCell>
        <mxCell id="jT8QoHCPhj27wWN9HuLi-13" style="edgeStyle=orthogonalEdgeStyle;rounded=0;orthogonalLoop=1;jettySize=auto;html=1;entryX=0.171;entryY=0.017;entryDx=0;entryDy=0;entryPerimeter=0;" edge="1" parent="1" source="jT8QoHCPhj27wWN9HuLi-8" target="jT8QoHCPhj27wWN9HuLi-5">
          <mxGeometry relative="1" as="geometry">
            <Array as="points">
              <mxPoint x="120" y="260" />
              <mxPoint x="386" y="260" />
            </Array>
          </mxGeometry>
        </mxCell>
        <mxCell id="jT8QoHCPhj27wWN9HuLi-14" value="&lt;div style=&quot;font-size: 10px;&quot;&gt;Se presiona el boton &quot;ok&quot; [Tinta y Papel suficiente]&lt;/div&gt;&lt;div style=&quot;font-size: 10px;&quot;&gt;&amp;nbsp;/ Encender led verde y retomar trabajo&lt;br style=&quot;font-size: 10px;&quot;&gt;&lt;/div&gt;" style="text;html=1;align=center;verticalAlign=middle;resizable=0;points=[];autosize=1;strokeColor=none;fillColor=none;fontSize=10;" vertex="1" parent="1">
          <mxGeometry x="125" y="220" width="260" height="40" as="geometry" />
        </mxCell>
        <mxCell id="jT8QoHCPhj27wWN9HuLi-16" style="edgeStyle=orthogonalEdgeStyle;rounded=0;orthogonalLoop=1;jettySize=auto;html=1;entryX=0;entryY=0;entryDx=0;entryDy=0;" edge="1" parent="1" source="jT8QoHCPhj27wWN9HuLi-8" target="jT8QoHCPhj27wWN9HuLi-8">
          <mxGeometry relative="1" as="geometry">
            <Array as="points">
              <mxPoint x="90" y="220" />
              <mxPoint x="60" y="220" />
            </Array>
          </mxGeometry>
        </mxCell>
        <mxCell id="jT8QoHCPhj27wWN9HuLi-17" value="&lt;div style=&quot;font-size: 8px;&quot;&gt;Se presiona el boton &quot;ok&quot; [Tinta y Papel insuficiente]&lt;/div&gt;&lt;div style=&quot;font-size: 8px;&quot;&gt;&amp;nbsp;/ Mantener led con el color actual&lt;br style=&quot;font-size: 8px;&quot;&gt;&lt;/div&gt;" style="text;html=1;align=center;verticalAlign=middle;resizable=0;points=[];autosize=1;strokeColor=none;fillColor=none;fontSize=8;" vertex="1" parent="1">
          <mxGeometry y="190" width="200" height="30" as="geometry" />
        </mxCell>
        <mxCell id="jT8QoHCPhj27wWN9HuLi-19" value="&lt;div&gt;Se termina de imprimir el&lt;/div&gt;&lt;div&gt;documento&lt;br&gt;&lt;/div&gt;" style="text;html=1;align=center;verticalAlign=middle;resizable=0;points=[];autosize=1;strokeColor=none;fillColor=none;fontSize=10;" vertex="1" parent="1">
          <mxGeometry x="510" y="430" width="140" height="40" as="geometry" />
        </mxCell>
        <mxCell id="jT8QoHCPhj27wWN9HuLi-20" value="" style="ellipse;whiteSpace=wrap;html=1;aspect=fixed;fillColor=#FFFFFF;" vertex="1" parent="1">
          <mxGeometry x="520" y="290" width="40" height="40" as="geometry" />
        </mxCell>
        <mxCell id="jT8QoHCPhj27wWN9HuLi-22" value="" style="ellipse;whiteSpace=wrap;html=1;aspect=fixed;fillColor=#000000;" vertex="1" parent="1">
          <mxGeometry x="415" y="60" width="40" height="40" as="geometry" />
        </mxCell>
        <mxCell id="jT8QoHCPhj27wWN9HuLi-1" value="" style="ellipse;whiteSpace=wrap;html=1;aspect=fixed;fillColor=#000000;" vertex="1" parent="1">
          <mxGeometry x="530" y="300" width="20" height="20" as="geometry" />
        </mxCell>
        <mxCell id="jT8QoHCPhj27wWN9HuLi-23" value="&lt;div&gt;Se presiona el boton&lt;/div&gt;&lt;div&gt;de apagado / Detener y&lt;/div&gt;&lt;div&gt;apagar sistema&lt;br&gt;&lt;/div&gt;" style="text;html=1;align=left;verticalAlign=middle;resizable=0;points=[];autosize=1;strokeColor=none;fillColor=none;fontSize=10;" vertex="1" parent="1">
          <mxGeometry x="560" y="285" width="130" height="50" as="geometry" />
        </mxCell>
        <mxCell id="jT8QoHCPhj27wWN9HuLi-27" value="&lt;div&gt;Se presiona el boton&lt;/div&gt;&lt;div&gt;de apagado / Detener y&lt;/div&gt;&lt;div&gt;apagar sistema&lt;br&gt;&lt;/div&gt;" style="text;html=1;align=center;verticalAlign=middle;resizable=0;points=[];autosize=1;strokeColor=none;fillColor=none;fontSize=10;" vertex="1" parent="1">
          <mxGeometry x="115" y="410" width="130" height="50" as="geometry" />
        </mxCell>
        <mxCell id="jT8QoHCPhj27wWN9HuLi-28" value="" style="ellipse;whiteSpace=wrap;html=1;aspect=fixed;fillColor=#000000;" vertex="1" parent="1">
          <mxGeometry x="80" y="425" width="20" height="20" as="geometry" />
        </mxCell>
        <mxCell id="jT8QoHCPhj27wWN9HuLi-29" value="" style="ellipse;whiteSpace=wrap;html=1;aspect=fixed;fillColor=#FFFFFF;" vertex="1" parent="1">
          <mxGeometry x="70" y="415" width="40" height="40" as="geometry" />
        </mxCell>
        <mxCell id="jT8QoHCPhj27wWN9HuLi-31" value="" style="ellipse;whiteSpace=wrap;html=1;aspect=fixed;fillColor=#000000;" vertex="1" parent="1">
          <mxGeometry x="80" y="425" width="20" height="20" as="geometry" />
        </mxCell>
        <mxCell id="jT8QoHCPhj27wWN9HuLi-34" value="&lt;div&gt;Se presiona el boton&lt;/div&gt;&lt;div&gt;de apagado / Detener y&lt;/div&gt;&lt;div&gt;apagar sistema&lt;br&gt;&lt;/div&gt;" style="text;html=1;align=right;verticalAlign=middle;resizable=0;points=[];autosize=1;strokeColor=none;fillColor=none;fontSize=10;" vertex="1" parent="1">
          <mxGeometry x="110" y="120" width="130" height="50" as="geometry" />
        </mxCell>
        <mxCell id="jT8QoHCPhj27wWN9HuLi-35" value="" style="ellipse;whiteSpace=wrap;html=1;aspect=fixed;fillColor=#000000;" vertex="1" parent="1">
          <mxGeometry x="250" y="135" width="20" height="20" as="geometry" />
        </mxCell>
        <mxCell id="jT8QoHCPhj27wWN9HuLi-36" value="" style="ellipse;whiteSpace=wrap;html=1;aspect=fixed;fillColor=#FFFFFF;" vertex="1" parent="1">
          <mxGeometry x="240" y="125" width="40" height="40" as="geometry" />
        </mxCell>
        <mxCell id="jT8QoHCPhj27wWN9HuLi-37" value="" style="ellipse;whiteSpace=wrap;html=1;aspect=fixed;fillColor=#000000;" vertex="1" parent="1">
          <mxGeometry x="250" y="135" width="20" height="20" as="geometry" />
        </mxCell>
      </root>
    </mxGraphModel>
  </diagram>
</mxfile>
